<svg xmlns="http://www.w3.org/2000/svg" viewBox="0 0 322.67 69.81"><title>ss-logo-bp-white</title><path d="M322.67,37.3H131.82V0H322.67ZM296.08,22.24c0,3.14,2.59,5.34,6.3,5.34,3,0,6.19-1.59,6.22-5.08.06-2.54-1.54-4.3-4.75-5.23l-2.06-.66c-1.23-.35-1.88-1-1.88-1.77,0-1,.93-1.73,2.25-1.73s2.25.75,2.25,2h3.68a5,5,0,0,0-1.62-3.84,6.18,6.18,0,0,0-4.24-1.46c-3.45,0-6,2.18-6,5.19,0,2.35,1.55,4.07,4.49,5l2.1.59c1.91.52,2.13,1.28,2.1,1.95,0,1.12-1,1.84-2.54,1.84a2.27,2.27,0,0,1-2.56-1.95c0-.05,0-.1,0-.15v0Zm-150.27,0c0,3.14,2.59,5.34,6.3,5.34,3,0,6.19-1.59,6.22-5.08.06-2.54-1.54-4.3-4.75-5.23l-2.06-.66c-1.23-.35-1.87-1-1.87-1.77,0-1,.92-1.73,2.24-1.73s2.25.75,2.25,2h3.68a5.07,5.07,0,0,0-1.61-3.84A6.22,6.22,0,0,0,152,9.76c-3.45,0-6,2.18-6,5.19,0,2.35,1.55,4.07,4.49,5l2.1.59c1.91.52,2.13,1.28,2.1,1.95,0,1.12-1,1.84-2.54,1.84a2.28,2.28,0,0,1-2.56-1.95c0-.05,0-.1,0-.15v0ZM262.35,9.76a8.7,8.7,0,0,0-8.69,8.72v.19a8.69,8.69,0,0,0,8.51,8.87h.18a8.65,8.65,0,0,0,7.29-3.79l-3-2a5.17,5.17,0,0,1-4.31,2.4,4.77,4.77,0,0,1-3.59-1.59,5.9,5.9,0,0,1,0-7.68,4.77,4.77,0,0,1,3.59-1.59,5,5,0,0,1,4.24,2.24l3-2.06a8.69,8.69,0,0,0-7.22-3.68ZM202,9.94V27.28h11.19V24.05h-7.55V13.18H213V9.94ZM281,21.39h0l5.19,5.89H291l-8.1-8.76,6.55-8.58h-4.34L281,15.61V9.94h-3.72V27.28H281V21.39ZM241.88,9.94V27.28h3.68V9.94Zm-16.6,11.45h0l5.19,5.89h4.78l-8.13-8.76,6.55-8.58h-4.31l-4.09,5.67V9.94h-3.71V27.28h3.71V21.39ZM166.44,9.94V27.28h3.68V9.94Zm12.81,14v3.35H186c4.74,0,7.81-3.38,7.81-8.62S190.69,10,186,10h-6.77V13.3h6.81c2.87,0,4.16,2.68,4.16,5.34a6.39,6.39,0,0,1-1,3.7,3.69,3.69,0,0,1-3.12,1.56Zm30.12-6.74v3.2h2.72v-3.2Z" style="fill:#000"/><path d="M3.68,22.2a2.3,2.3,0,0,0,2.46,2.12l.12,0c1.47,0,2.5-.7,2.54-1.84,0-.77-.33-1.47-2.1-1.95l-2.1-.59C.85,18.74.18,16.5.18,15c0-3.09,2.66-5.19,6-5.19s5.85,2,5.85,5.3H8.32c0-1.14-.77-2-2.24-2-1.29,0-2.25.7-2.25,1.73,0,.44.18,1.29,1.88,1.76l2.06.67c4.2,1.21,4.79,3.57,4.75,5.23,0,3.46-3.17,5.08-6.22,5.08C2.5,27.54,0,25.33,0,22.2Z" style="fill:#000"/><path d="M49.53,21.1V9.94h3.68V21.1a6.73,6.73,0,0,1-13.44,0V9.94h3.75V21.1a3,3,0,0,0,3,3h0a3,3,0,0,0,3-3Z" style="fill:#000"/><path d="M88.63,9.94V27.28H85V9.94Z" style="fill:#000"/><path d="M23.79,13.29h8.4V9.94H19.11v3.35Z" style="fill:#000"/><rect x="23.79" y="16.94" width="3.72" height="10.35" style="fill:#000"/><path d="M105.49,9.76a8.89,8.89,0,1,1-8.76,9v-.11a8.8,8.8,0,0,1,8.69-8.91Zm0,14.14a5.25,5.25,0,1,0-5.11-5.38.75.75,0,0,0,0,.15,5.15,5.15,0,0,0,5.08,5.23Z" style="fill:#000"/><path d="M68.93,9.94H62.15v3.35H69c2.76,0,4.16,2.5,4.16,5.34S71.73,23.9,69,23.9H62.15v3.35h6.78c5,0,7.8-3.72,7.8-8.62S73.9,9.94,68.93,9.94Z" style="fill:#000"/><path d="M75.3,58.6v7.48H73.9V64.89a3,3,0,0,1-2.65,1.35,3.73,3.73,0,0,1-3.75-3.91,3.68,3.68,0,0,1,3.73-3.89,3,3,0,0,1,2.67,1.33V58.6Zm-1.4,3.71a2.53,2.53,0,0,0-2.54-2.56,2.45,2.45,0,0,0-2.45,2.56,2.5,2.5,0,1,0,5,0Z" style="fill:#000"/><path d="M89.81,63a3.09,3.09,0,0,1-3.22,3.11h-4.5v-11h4.15a2.7,2.7,0,0,1,3,2.81,2.32,2.32,0,0,1-1.4,2.34A2.74,2.74,0,0,1,89.81,63Zm-6.26-6.58v3.25h2.72a1.63,1.63,0,0,0,0-3.25Zm4.8,6.45a1.85,1.85,0,0,0-2-1.92H83.55v3.81h2.74A1.86,1.86,0,0,0,88.35,62.84Z" style="fill:#000"/><path d="M91.56,55.85a1,1,0,1,1,1,.93A1,1,0,0,1,91.56,55.85Zm.29,2.75h1.39v7.48H91.85Z" style="fill:#000"/><path d="M103,58.6v6.34c0,3.54-1.6,4.87-4.07,4.87a3.79,3.79,0,0,1-3.36-2l1.19-.62a2.5,2.5,0,0,0,2.17,1.31c1.65,0,2.68-.93,2.68-3.45v-.15a3.06,3.06,0,0,1-2.66,1.35,3.73,3.73,0,0,1-3.75-3.91,3.68,3.68,0,0,1,3.73-3.89,3,3,0,0,1,2.68,1.33V58.6Zm-1.39,3.71A2.54,2.54,0,0,0,99,59.75a2.45,2.45,0,0,0-2.45,2.56,2.5,2.5,0,1,0,5,0Z" style="fill:#000"/><path d="M112.69,58.6v6.34c0,3.54-1.6,4.87-4.07,4.87a3.79,3.79,0,0,1-3.36-2l1.18-.62a2.53,2.53,0,0,0,2.18,1.31c1.65,0,2.67-.93,2.67-3.45v-.15a3,3,0,0,1-2.65,1.35,3.73,3.73,0,0,1-3.75-3.91,3.68,3.68,0,0,1,3.73-3.89,3,3,0,0,1,2.67,1.33V58.6Zm-1.4,3.71a2.53,2.53,0,0,0-2.54-2.56,2.45,2.45,0,0,0-2.45,2.56,2.5,2.5,0,1,0,5,0Z" style="fill:#000"/><path d="M122.13,62.94H116a2.26,2.26,0,0,0,2.45,2,2.41,2.41,0,0,0,2.18-1.13l1.22.48a3.9,3.9,0,0,1-7.29-2,3.72,3.72,0,0,1,3.85-3.87,3.61,3.61,0,0,1,3.71,3.87C122.16,62.52,122.14,62.73,122.13,62.94Zm-1.36-1.2a2.39,2.39,0,0,0-4.71,0Z" style="fill:#000"/><path d="M128.85,58.73,128.62,60a2.63,2.63,0,0,0-1.09-.26c-1.49,0-2.08,1.59-2.08,3.56v2.74H124V58.6h1.41v1.7c.39-1.32,1.11-1.86,2.1-1.86A2.77,2.77,0,0,1,128.85,58.73Z" style="fill:#000"/><path d="M141.85,58.49a3.14,3.14,0,0,1-3.28,3.44h-2.93v4.15h-1.45v-11h4.38A3.15,3.15,0,0,1,141.85,58.49Zm-1.45,0a1.87,1.87,0,0,0-1.84-2.1h-2.92v4.18h2.84A1.87,1.87,0,0,0,140.4,58.49Z" style="fill:#000"/><path d="M143.34,55.85a1,1,0,1,1,1,.93A1,1,0,0,1,143.34,55.85Zm.29,2.75H145v7.48h-1.39Z" style="fill:#000"/><path d="M146.92,62.33a3.87,3.87,0,0,1,4-3.89,3.81,3.81,0,0,1,2.85,1.19l-.88.91a2.64,2.64,0,0,0-1.92-.79,2.58,2.58,0,1,0,0,5.16,2.64,2.64,0,0,0,1.92-.79l.88.92a3.8,3.8,0,0,1-2.85,1.18A3.87,3.87,0,0,1,146.92,62.33Z" style="fill:#000"/><path d="M159.13,59.8h-1.61v6.28h-1.4V59.8h-1.34V58.6h1.34V55.77h1.4V58.6h1.61Z" style="fill:#000"/><path d="M167.47,58.6v7.48h-1.39V64.91a2.83,2.83,0,0,1-2.48,1.33c-1.88,0-3-1.22-3-3.32V58.6H162v4.24a1.81,1.81,0,0,0,1.79,2,2.16,2.16,0,0,0,2.31-2.21v-4Z" style="fill:#000"/><path d="M174.68,58.73,174.46,60a2.63,2.63,0,0,0-1.09-.26c-1.49,0-2.08,1.59-2.08,3.56v2.74h-1.41V58.6h1.41v1.7c.39-1.32,1.11-1.86,2.1-1.86A2.7,2.7,0,0,1,174.68,58.73Z" style="fill:#000"/><path d="M182.86,62.94h-6.08a2.26,2.26,0,0,0,2.45,2,2.42,2.42,0,0,0,2.18-1.13l1.21.48a3.89,3.89,0,0,1-7.28-2,3.71,3.71,0,0,1,3.84-3.87,3.61,3.61,0,0,1,3.71,3.87Q182.89,62.63,182.86,62.94Zm-1.36-1.2a2.38,2.38,0,0,0-4.7,0Z" style="fill:#000"/><path d="M188.31,62.33a3.87,3.87,0,0,1,4-3.89,3.79,3.79,0,0,1,2.85,1.19l-.88.91a2.64,2.64,0,0,0-1.92-.79,2.58,2.58,0,1,0,0,5.16,2.64,2.64,0,0,0,1.92-.79l.88.92a3.79,3.79,0,0,1-2.85,1.18A3.87,3.87,0,0,1,188.31,62.33Z" style="fill:#000"/><path d="M196.23,62.31a3.92,3.92,0,0,1,7.83,0,3.92,3.92,0,1,1-7.83,0Zm6.44,0a2.52,2.52,0,1,0-2.53,2.61A2.48,2.48,0,0,0,202.67,62.31Z" style="fill:#000"/><path d="M217.76,61.75v4.33h-1.39V61.83a1.8,1.8,0,0,0-1.78-2,2.09,2.09,0,0,0-2,2.55l0-.06v3.81h-1.39V61.83c0-1.26-.69-2-1.68-2A2,2,0,0,0,207.39,62v4H206V58.6h1.4v1.14a2.79,2.79,0,0,1,4.86.25,2.77,2.77,0,0,1,2.61-1.55C216.74,58.44,217.76,59.66,217.76,61.75Z" style="fill:#000"/><path d="M227.87,62.35a3.68,3.68,0,0,1-3.73,3.89,3,3,0,0,1-2.67-1.33v4.8h-1.4V58.6h1.4v1.18a3,3,0,0,1,2.65-1.34A3.72,3.72,0,0,1,227.87,62.35Zm-1.41,0A2.5,2.5,0,1,0,224,64.92,2.45,2.45,0,0,0,226.46,62.36Z" style="fill:#000"/><path d="M237.1,58.6v7.48h-1.39V64.89a3.06,3.06,0,0,1-2.66,1.35,3.9,3.9,0,0,1,0-7.8,3,3,0,0,1,2.67,1.33V58.6Zm-1.39,3.71a2.53,2.53,0,0,0-2.55-2.56,2.45,2.45,0,0,0-2.45,2.56,2.5,2.5,0,1,0,5,0Z" style="fill:#000"/><path d="M246.41,61.75v4.33H245V61.83a1.82,1.82,0,0,0-1.81-2A2.13,2.13,0,0,0,240.92,62v4h-1.39V58.6h1.39v1.14a2.84,2.84,0,0,1,2.48-1.3C245.26,58.44,246.43,59.66,246.41,61.75Z" style="fill:#000"/><path d="M255.16,58.6l-4.64,11.11h-1.47l1.55-3.84-3-7.27h1.5l2.26,5.51,2.29-5.51Z" style="fill:#000"/></svg>